<?xml version="1.0" encoding="UTF-8" standalone="no"?>
<svg
   xmlns:dc="http://purl.org/dc/elements/1.1/"
   xmlns:cc="http://creativecommons.org/ns#"
   xmlns:rdf="http://www.w3.org/1999/02/22-rdf-syntax-ns#"
   xmlns:svg="http://www.w3.org/2000/svg"
   xmlns="http://www.w3.org/2000/svg"
   xmlns:sodipodi="http://sodipodi.sourceforge.net/DTD/sodipodi-0.dtd"
   xmlns:inkscape="http://www.inkscape.org/namespaces/inkscape"
   width="167.2"
   height="71.300003"
   viewBox="0 0 167.2 71.3"
   version="1.1"
   id="svg10"
   sodipodi:docname="dorsetcouncillogo.svg"
   inkscape:export-filename="C:\Users\c.hunting\Desktop\g886.png"
   inkscape:export-xdpi="300"
   inkscape:export-ydpi="300"
   inkscape:version="0.92.3 (2405546, 2018-03-11)">
  <metadata
     id="metadata16">
    <rdf:RDF>
      <cc:Work
         rdf:about="">
        <dc:format>image/svg+xml</dc:format>
        <dc:type
           rdf:resource="http://purl.org/dc/dcmitype/StillImage" />
        <dc:title></dc:title>
      </cc:Work>
    </rdf:RDF>
  </metadata>
  <defs
     id="defs14">
    <style
       id="style823">.cls-1{fill:#07486e;}.cls-2{fill:#4ab171;}.cls-3{fill:#c7d42f;}.cls-4{fill:#06a099;}.cls-5{fill:#1ab9de;}</style>
  </defs>
  <sodipodi:namedview
     pagecolor="#ffffff"
     bordercolor="#666666"
     borderopacity="1"
     objecttolerance="10"
     gridtolerance="10"
     guidetolerance="10"
     inkscape:pageopacity="0"
     inkscape:pageshadow="2"
     inkscape:window-width="1440"
     inkscape:window-height="837"
     id="namedview12"
     showgrid="false"
     inkscape:zoom="4.1099856"
     inkscape:cx="68.129342"
     inkscape:cy="29.243337"
     inkscape:window-x="2728"
     inkscape:window-y="122"
     inkscape:window-maximized="1"
     inkscape:current-layer="svg10" />
  <g
     id="g886"
     transform="matrix(1.0163915,0,0,1.0163915,0.35541964,0.33315472)">
    <path
       id="path829"
       transform="translate(-0.89,-0.98)"
       d="m 76.78,53.63 a 5.21,5.21 0 0 0 4.34,-2.25 l 1.44,0.89 a 6,6 0 0 1 -1.07,1.24 7,7 0 0 1 -1.37,1 7.24,7.24 0 0 1 -1.59,0.6 6.77,6.77 0 0 1 -1.75,0.22 6.88,6.88 0 0 1 -2.68,-0.52 7.27,7.27 0 0 1 -2.2,-1.41 6.77,6.77 0 0 1 -1.48,-2.1 6.31,6.31 0 0 1 0,-5.11 6.62,6.62 0 0 1 1.48,-2.09 7,7 0 0 1 4.88,-1.93 7,7 0 0 1 3.34,0.81 6.66,6.66 0 0 1 2.44,2.17 L 81.12,46 a 5.27,5.27 0 0 0 -4.34,-2.25 5,5 0 0 0 -2,0.39 5.12,5.12 0 0 0 -1.64,1.05 4.8,4.8 0 0 0 -1.1,1.57 4.71,4.71 0 0 0 -0.41,1.93 4.63,4.63 0 0 0 0.41,1.92 4.69,4.69 0 0 0 1.1,1.57 5.32,5.32 0 0 0 1.64,1.06 5,5 0 0 0 2,0.39 z"
       class="cls-1"
       inkscape:connector-curvature="0"
       style="fill:#07486e" />
    <path
       id="path831"
       transform="translate(-0.89,-0.98)"
       d="m 89.11,55.28 a 5,5 0 0 1 -3.43,-1.34 4.62,4.62 0 0 1 -1,-1.47 4.23,4.23 0 0 1 -0.39,-1.81 4.17,4.17 0 0 1 0.39,-1.78 4.62,4.62 0 0 1 1,-1.47 4.85,4.85 0 0 1 1.54,-1 4.79,4.79 0 0 1 1.89,-0.37 4.74,4.74 0 0 1 1.88,0.37 4.85,4.85 0 0 1 1.54,1 4.62,4.62 0 0 1 1,1.47 4.17,4.17 0 0 1 0.47,1.78 4.23,4.23 0 0 1 -0.39,1.81 4.62,4.62 0 0 1 -1,1.47 5,5 0 0 1 -1.54,1 4.92,4.92 0 0 1 -1.96,0.34 z m 0,-7.75 a 3.38,3.38 0 0 0 -1.27,0.25 2.92,2.92 0 0 0 -1,0.67 3.19,3.19 0 0 0 -0.69,1 3.08,3.08 0 0 0 0,2.43 3.15,3.15 0 0 0 0.69,1 3.22,3.22 0 0 0 1,0.67 3.38,3.38 0 0 0 1.27,0.24 3.25,3.25 0 0 0 2.3,-0.91 3,3 0 0 0 0.7,-1 3.08,3.08 0 0 0 0,-2.43 3.06,3.06 0 0 0 -0.7,-1 3,3 0 0 0 -1,-0.67 3.34,3.34 0 0 0 -1.3,-0.25 z"
       class="cls-1"
       inkscape:connector-curvature="0"
       style="fill:#07486e" />
    <path
       id="path833"
       transform="translate(-0.89,-0.98)"
       d="m 96.1,52.38 a 2.85,2.85 0 0 1 -0.08,-0.62 v -5.39 h 1.6 v 5.06 a 5.09,5.09 0 0 0 0.06,0.72 2.36,2.36 0 0 0 0.29,0.79 1.88,1.88 0 0 0 0.67,0.64 2.26,2.26 0 0 0 1.19,0.27 3.32,3.32 0 0 0 1.45,-0.27 2.37,2.37 0 0 0 0.82,-0.63 2,2 0 0 0 0.38,-0.73 4.06,4.06 0 0 0 0.11,-0.59 v -5.26 h 1.61 V 55 h -1.61 v -0.77 a 3.29,3.29 0 0 1 -0.7,0.55 4.83,4.83 0 0 1 -0.87,0.37 4,4 0 0 1 -1.21,0.17 A 4.23,4.23 0 0 1 98.1,55 3.25,3.25 0 0 1 97,54.25 a 2.72,2.72 0 0 1 -0.63,-1 4.49,4.49 0 0 1 -0.27,-0.87 z"
       class="cls-1"
       inkscape:connector-curvature="0"
       style="fill:#07486e" />
    <path
       id="path835"
       transform="translate(-0.89,-0.98)"
       d="m 115.31,49 a 2.86,2.86 0 0 1 0.06,0.35 c 0,0.1 0,0.19 0,0.27 V 55 h -1.6 v -5.1 a 5,5 0 0 0 -0.06,-0.7 2.28,2.28 0 0 0 -0.29,-0.79 1.91,1.91 0 0 0 -0.68,-0.64 2.32,2.32 0 0 0 -1.2,-0.27 3.32,3.32 0 0 0 -1.43,0.26 2.29,2.29 0 0 0 -0.83,0.62 2,2 0 0 0 -0.39,0.74 3.74,3.74 0 0 0 -0.11,0.58 V 55 h -1.59 v -8.63 h 1.59 v 0.77 A 1.24,1.24 0 0 0 109,47 a 2.42,2.42 0 0 1 0.52,-0.37 4.83,4.83 0 0 1 0.87,-0.37 3.88,3.88 0 0 1 1.19,-0.17 4.31,4.31 0 0 1 1.72,0.3 3.3,3.3 0 0 1 1.1,0.73 2.86,2.86 0 0 1 0.63,1 4.49,4.49 0 0 1 0.28,0.88 z"
       class="cls-1"
       inkscape:connector-curvature="0"
       style="fill:#07486e" />
    <path
       id="path837"
       transform="translate(-0.89,-0.98)"
       d="m 122.31,47.53 a 3.21,3.21 0 0 0 -1.27,0.26 3,3 0 0 0 -1,0.66 3,3 0 0 0 -0.69,1 3,3 0 0 0 -0.25,1.22 2.91,2.91 0 0 0 0.25,1.21 3.19,3.19 0 0 0 0.69,1 2.94,2.94 0 0 0 1,0.68 3.2,3.2 0 0 0 1.27,0.25 3.13,3.13 0 0 0 1.59,-0.4 3.36,3.36 0 0 0 1.14,-1 l 1.33,0.82 a 4.92,4.92 0 0 1 -1.72,1.54 4.85,4.85 0 0 1 -2.34,0.57 4.79,4.79 0 0 1 -1.89,-0.37 4.85,4.85 0 0 1 -1.54,-1 4.62,4.62 0 0 1 -1,-1.47 4.22,4.22 0 0 1 -0.39,-1.8 4.18,4.18 0 0 1 0.39,-1.79 4.48,4.48 0 0 1 1,-1.46 5,5 0 0 1 1.54,-1 4.79,4.79 0 0 1 1.89,-0.37 4.85,4.85 0 0 1 4.06,2.11 l -1.32,0.82 a 3,3 0 0 0 -1.14,-1 3.3,3.3 0 0 0 -1.6,-0.48 z"
       class="cls-1"
       inkscape:connector-curvature="0"
       style="fill:#07486e" />
    <path
       id="path839"
       transform="translate(-0.89,-0.98)"
       d="m 130.27,43.92 a 1,1 0 0 1 -0.3,0.71 1,1 0 0 1 -0.73,0.29 1,1 0 0 1 -0.74,-0.29 1,1 0 0 1 0,-1.41 1.05,1.05 0 0 1 0.74,-0.28 1,1 0 0 1 0.73,0.28 1,1 0 0 1 0.3,0.7 z M 130,55 h -1.6 v -8.63 h 1.6 z"
       class="cls-1"
       inkscape:connector-curvature="0"
       style="fill:#07486e" />
    <path
       id="path841"
       transform="translate(-0.89,-0.98)"
       d="M 133.22,55 V 42.4 h 1.59 V 55 Z"
       class="cls-1"
       inkscape:connector-curvature="0"
       style="fill:#07486e" />
    <path
       id="path843"
       transform="translate(-0.89,-0.98)"
       d="m 76.29,16.31 a 11.28,11.28 0 0 1 7.82,3.1 10.58,10.58 0 0 1 2.38,3.37 10.06,10.06 0 0 1 0,8.23 10.58,10.58 0 0 1 -2.38,3.37 11.28,11.28 0 0 1 -7.82,3.1 H 69.94 V 16.31 Z m 0,18.39 a 8.17,8.17 0 0 0 3.16,-0.62 8.35,8.35 0 0 0 2.55,-1.68 8,8 0 0 0 1.73,-2.48 7.58,7.58 0 0 0 0,-6.05 A 8,8 0 0 0 82,21.39 8.35,8.35 0 0 0 79.43,19.71 8.17,8.17 0 0 0 76.27,19.09 H 72.93 V 34.7 Z"
       class="cls-1"
       inkscape:connector-curvature="0"
       style="fill:#07486e" />
    <path
       id="path845"
       transform="translate(-0.89,-0.98)"
       d="m 98.44,38 a 8.47,8.47 0 0 1 -3.2,-0.6 8,8 0 0 1 -4.37,-4.14 7.34,7.34 0 0 1 -0.65,-3.06 7.22,7.22 0 0 1 0.65,-3 8,8 0 0 1 1.76,-2.48 8.43,8.43 0 0 1 11.59,0 7.83,7.83 0 0 1 1.78,2.48 7.22,7.22 0 0 1 0.65,3 7.34,7.34 0 0 1 -0.65,3.06 8.06,8.06 0 0 1 -1.76,2.48 8.26,8.26 0 0 1 -2.6,1.66 8.48,8.48 0 0 1 -3.2,0.6 z m 0,-13.09 a 5.61,5.61 0 0 0 -2.16,0.41 5.28,5.28 0 0 0 -1.74,1.13 5.53,5.53 0 0 0 -1.16,1.69 5.15,5.15 0 0 0 0,4.12 5.49,5.49 0 0 0 1.16,1.74 5.6,5.6 0 0 0 1.74,1.12 5.8,5.8 0 0 0 2.16,0.4 5.62,5.62 0 0 0 2.14,-0.4 5.76,5.76 0 0 0 1.75,-1.12 5.19,5.19 0 0 0 1.17,-1.68 5.15,5.15 0 0 0 0,-4.12 5.23,5.23 0 0 0 -1.17,-1.69 5.58,5.58 0 0 0 -3.89,-1.54 z"
       class="cls-1"
       inkscape:connector-curvature="0"
       style="fill:#07486e" />
    <path
       id="path847"
       transform="translate(-0.89,-0.98)"
       d="m 117.83,22.39 a 8.8,8.8 0 0 1 1.85,0.18 l -0.39,2.48 a 4.37,4.37 0 0 0 -1.49,-0.21 5.48,5.48 0 0 0 -2.42,0.44 3.81,3.81 0 0 0 -1.4,1.06 3.17,3.17 0 0 0 -0.65,1.24 5.83,5.83 0 0 0 -0.19,1 v 8.92 h -2.7 V 23 h 2.7 v 1.3 l 0.33,-0.31 a 4.67,4.67 0 0 1 0.87,-0.64 7.14,7.14 0 0 1 1.45,-0.63 6.28,6.28 0 0 1 2.04,-0.33 z"
       class="cls-1"
       inkscape:connector-curvature="0"
       style="fill:#07486e" />
    <path
       id="path849"
       transform="translate(-0.89,-0.98)"
       d="m 128.34,28.62 c 0.57,0.12 1.23,0.27 2,0.45 a 9.27,9.27 0 0 1 2.11,0.8 5.65,5.65 0 0 1 1.7,1.41 3.5,3.5 0 0 1 0.69,2.24 3.76,3.76 0 0 1 -1.84,3.31 8.85,8.85 0 0 1 -5,1.19 9.85,9.85 0 0 1 -2.15,-0.22 7.76,7.76 0 0 1 -1.85,-0.65 7.34,7.34 0 0 1 -1.46,-1 3.75,3.75 0 0 1 -1,-1.25 l 2.41,-0.82 a 3.47,3.47 0 0 0 1.53,1 6.77,6.77 0 0 0 2.47,0.42 c 0.32,0 0.7,0 1.15,-0.06 a 5.5,5.5 0 0 0 1.28,-0.27 3.05,3.05 0 0 0 1.06,-0.6 1.35,1.35 0 0 0 0.45,-1.06 1.86,1.86 0 0 0 -0.1,-0.61 1.24,1.24 0 0 0 -0.49,-0.6 4.73,4.73 0 0 0 -1.24,-0.61 17.13,17.13 0 0 0 -2.36,-0.6 c -0.7,-0.14 -1.4,-0.3 -2.11,-0.47 a 7.17,7.17 0 0 1 -1.9,-0.74 4.24,4.24 0 0 1 -1.39,-1.23 3.11,3.11 0 0 1 -0.54,-1.89 3.77,3.77 0 0 1 1.59,-3.14 7.06,7.06 0 0 1 4.38,-1.21 10.12,10.12 0 0 1 2.08,0.21 7.88,7.88 0 0 1 1.83,0.62 6.26,6.26 0 0 1 1.44,1 3.46,3.46 0 0 1 0.9,1.25 l -2.41,0.82 a 2.64,2.64 0 0 0 -1.35,-1 6,6 0 0 0 -2.2,-0.38 5.22,5.22 0 0 0 -2.53,0.51 1.53,1.53 0 0 0 -0.9,1.33 1.59,1.59 0 0 0 0.08,0.5 0.89,0.89 0 0 0 0.43,0.44 4.9,4.9 0 0 0 1.09,0.44 19.89,19.89 0 0 0 2.15,0.47 z"
       class="cls-1"
       inkscape:connector-curvature="0"
       style="fill:#07486e" />
    <path
       id="path851"
       transform="translate(-0.89,-0.98)"
       d="m 140.69,30.92 a 5.6,5.6 0 0 0 0.55,1.81 5.13,5.13 0 0 0 1.08,1.45 5,5 0 0 0 1.49,1 4.52,4.52 0 0 0 1.8,0.36 5.35,5.35 0 0 0 4.57,-2.45 l 2.22,1.37 a 8.08,8.08 0 0 1 -6.79,3.54 7.29,7.29 0 0 1 -2.81,-0.54 7.56,7.56 0 0 1 -2.34,-1.5 7.83,7.83 0 0 1 -1.66,-2.25 7.45,7.45 0 0 1 -0.78,-2.81 c 0,-0.1 0,-0.21 0,-0.34 0,-0.13 0,-0.24 0,-0.36 a 7,7 0 0 1 0.22,-1.81 7.63,7.63 0 0 1 1,-2.38 8,8 0 0 1 1.67,-1.9 7.45,7.45 0 0 1 2.19,-1.26 7.48,7.48 0 0 1 5.11,0 7.45,7.45 0 0 1 2.19,1.26 8,8 0 0 1 1.6,1.89 7.63,7.63 0 0 1 1,2.38 7,7 0 0 1 0.22,1.81 v 0.36 a 1.72,1.72 0 0 1 0,0.34 z m 9.58,-2.51 a 5.31,5.31 0 0 0 -1.79,-2.51 4.75,4.75 0 0 0 -5.75,0 5.31,5.31 0 0 0 -1.79,2.51 z"
       class="cls-1"
       inkscape:connector-curvature="0"
       style="fill:#07486e" />
    <path
       id="path853"
       transform="translate(-0.89,-0.98)"
       d="m 164.17,37.69 -0.51,0.15 a 4.89,4.89 0 0 1 -1,0.17 5.92,5.92 0 0 1 -1.36,-0.08 3.79,3.79 0 0 1 -1.45,-0.57 Q 157.7,36 157.7,32.25 v -6.78 h -1.94 V 23 h 1.94 v -6.75 h 2.63 V 23 h 3.18 v 2.51 h -3.18 v 6.78 c 0,1.59 0.32,2.6 0.95,3 a 1.39,1.39 0 0 0 0.62,0.21 4.46,4.46 0 0 0 0.62,0 3.19,3.19 0 0 0 0.7,-0.14 z"
       class="cls-1"
       inkscape:connector-curvature="0"
       style="fill:#07486e" />
    <path
       id="path855"
       transform="translate(-0.89,-0.98)"
       d="M 7.85,26.15 A 33,33 0 0 0 1,25.47 v 9.8 A 60.47,60.47 0 0 1 24.83,33.9 43.59,43.59 0 0 0 7.85,26.15 Z"
       class="cls-2"
       inkscape:connector-curvature="0"
       style="fill:#4ab171" />
    <path
       id="path857"
       transform="translate(-0.89,-0.98)"
       d="m 1,70.54 h 20.81 a 37.15,37.15 0 0 0 25.7,-10.18 34.7,34.7 0 0 0 6,-7.53 C 32.57,33.89 10.4,37.29 1,40 Z"
       class="cls-3"
       inkscape:connector-curvature="0"
       style="fill:#c7d42f" />
    <path
       id="path859"
       transform="translate(-0.89,-0.98)"
       d="M 58.2,35.76 A 32.5,32.5 0 0 0 55.34,22.25 l -0.21,-0.43 a 31.81,31.81 0 0 0 -30,6.67 60.88,60.88 0 0 1 9.56,7.79 61.43,61.43 0 0 1 20.96,12.25 32.6,32.6 0 0 0 2.55,-12.77 z"
       class="cls-4"
       inkscape:connector-curvature="0"
       style="fill:#06a099" />
    <path
       id="path861"
       transform="translate(-0.89,-0.98)"
       d="M 47.51,11.17 A 37.22,37.22 0 0 0 21.81,1 H 1 L 0.89,20.83 A 41.8,41.8 0 0 1 21,26 36.14,36.14 0 0 1 52.11,16.54 34.4,34.4 0 0 0 47.51,11.17 Z"
       class="cls-5"
       inkscape:connector-curvature="0"
       style="fill:#1ab9de" />
  </g>
</svg>
